{
	"patcher" : 	{
		"fileversion" : 1,
		"appversion" : 		{
			"major" : 8,
			"minor" : 1,
			"revision" : 8,
			"architecture" : "x64",
			"modernui" : 1
		}
,
		"classnamespace" : "box",
		"rect" : [ 26.0, 77.0, 1852.0, 929.0 ],
		"bglocked" : 0,
		"openinpresentation" : 1,
		"default_fontsize" : 12.0,
		"default_fontface" : 0,
		"default_fontname" : "Arial",
		"gridonopen" : 1,
		"gridsize" : [ 15.0, 15.0 ],
		"gridsnaponopen" : 1,
		"objectsnaponopen" : 1,
		"statusbarvisible" : 2,
		"toolbarvisible" : 1,
		"lefttoolbarpinned" : 0,
		"toptoolbarpinned" : 0,
		"righttoolbarpinned" : 0,
		"bottomtoolbarpinned" : 0,
		"toolbars_unpinned_last_save" : 0,
		"tallnewobj" : 0,
		"boxanimatetime" : 200,
		"enablehscroll" : 1,
		"enablevscroll" : 1,
		"devicewidth" : 0.0,
		"description" : "",
		"digest" : "",
		"tags" : "",
		"style" : "",
		"subpatcher_template" : "",
		"assistshowspatchername" : 0,
		"boxes" : [ 			{
				"box" : 				{
					"fontface" : 1,
					"fontsize" : 24.0,
					"id" : "obj-95",
					"maxclass" : "message",
					"numinlets" : 2,
					"numoutlets" : 1,
					"outlettype" : [ "" ],
					"patching_rect" : [ 843.0, 207.0, 234.0, 36.0 ],
					"presentation" : 1,
					"presentation_rect" : [ 394.0, 372.0, 243.0, 36.0 ],
					"style" : "chiba",
					"text" : "Underground Alarm"
				}

			}
, 			{
				"box" : 				{
					"fontface" : 1,
					"fontsize" : 24.0,
					"id" : "obj-94",
					"maxclass" : "message",
					"numinlets" : 2,
					"numoutlets" : 1,
					"outlettype" : [ "" ],
					"patching_rect" : [ 846.25, 158.0, 114.0, 36.0 ],
					"presentation" : 1,
					"presentation_rect" : [ 150.25, 414.0, 120.0, 36.0 ],
					"style" : "chiba",
					"text" : "Robodog"
				}

			}
, 			{
				"box" : 				{
					"fontface" : 1,
					"fontsize" : 24.0,
					"id" : "obj-92",
					"maxclass" : "message",
					"numinlets" : 2,
					"numoutlets" : 1,
					"outlettype" : [ "" ],
					"patching_rect" : [ 784.25, 53.0, 93.0, 36.0 ],
					"presentation" : 1,
					"presentation_rect" : [ 477.5, 414.0, 97.0, 36.0 ],
					"style" : "chiba",
					"text" : "Laser 3"
				}

			}
, 			{
				"box" : 				{
					"fontface" : 1,
					"fontsize" : 24.0,
					"id" : "obj-91",
					"maxclass" : "message",
					"numinlets" : 2,
					"numoutlets" : 1,
					"outlettype" : [ "" ],
					"patching_rect" : [ 779.5, 106.0, 93.0, 36.0 ],
					"presentation" : 1,
					"presentation_rect" : [ 377.25, 414.0, 97.0, 36.0 ],
					"style" : "chiba",
					"text" : "Laser 2"
				}

			}
, 			{
				"box" : 				{
					"fontface" : 1,
					"fontsize" : 24.0,
					"id" : "obj-90",
					"maxclass" : "message",
					"numinlets" : 2,
					"numoutlets" : 1,
					"outlettype" : [ "" ],
					"patching_rect" : [ 746.25, 158.0, 93.0, 36.0 ],
					"presentation" : 1,
					"presentation_rect" : [ 276.0, 414.0, 97.0, 36.0 ],
					"style" : "chiba",
					"text" : "Laser 1"
				}

			}
, 			{
				"box" : 				{
					"fontface" : 1,
					"fontsize" : 24.0,
					"id" : "obj-89",
					"maxclass" : "message",
					"numinlets" : 2,
					"numoutlets" : 1,
					"outlettype" : [ "" ],
					"patching_rect" : [ 746.25, 207.0, 86.0, 36.0 ],
					"presentation" : 1,
					"presentation_rect" : [ 46.25, 414.0, 97.0, 36.0 ],
					"style" : "chiba",
					"text" : "BARK!"
				}

			}
, 			{
				"box" : 				{
					"fontface" : 1,
					"fontsize" : 24.0,
					"id" : "obj-88",
					"maxclass" : "message",
					"numinlets" : 2,
					"numoutlets" : 1,
					"outlettype" : [ "" ],
					"patching_rect" : [ 731.25, 257.0, 146.0, 36.0 ],
					"presentation" : 1,
					"presentation_rect" : [ 231.0, 372.0, 156.0, 36.0 ],
					"style" : "chiba",
					"text" : "Ah My Dick!"
				}

			}
, 			{
				"box" : 				{
					"id" : "obj-87",
					"maxclass" : "message",
					"numinlets" : 2,
					"numoutlets" : 1,
					"outlettype" : [ "" ],
					"patching_rect" : [ 98.0, 445.0, 29.5, 22.0 ],
					"text" : "42"
				}

			}
, 			{
				"box" : 				{
					"id" : "obj-85",
					"maxclass" : "message",
					"numinlets" : 2,
					"numoutlets" : 1,
					"outlettype" : [ "" ],
					"patching_rect" : [ 57.0, 445.0, 29.5, 22.0 ],
					"text" : "41"
				}

			}
, 			{
				"box" : 				{
					"id" : "obj-83",
					"maxclass" : "message",
					"numinlets" : 2,
					"numoutlets" : 1,
					"outlettype" : [ "" ],
					"patching_rect" : [ 843.0, 417.0, 29.5, 22.0 ],
					"text" : "40"
				}

			}
, 			{
				"box" : 				{
					"id" : "obj-81",
					"maxclass" : "message",
					"numinlets" : 2,
					"numoutlets" : 1,
					"outlettype" : [ "" ],
					"patching_rect" : [ 801.0, 417.0, 29.5, 22.0 ],
					"text" : "39"
				}

			}
, 			{
				"box" : 				{
					"id" : "obj-79",
					"maxclass" : "message",
					"numinlets" : 2,
					"numoutlets" : 1,
					"outlettype" : [ "" ],
					"patching_rect" : [ 762.0, 417.0, 29.5, 22.0 ],
					"text" : "38"
				}

			}
, 			{
				"box" : 				{
					"id" : "obj-71",
					"maxclass" : "message",
					"numinlets" : 2,
					"numoutlets" : 1,
					"outlettype" : [ "" ],
					"patching_rect" : [ 717.0, 417.0, 29.5, 22.0 ],
					"text" : "37"
				}

			}
, 			{
				"box" : 				{
					"id" : "obj-27",
					"maxclass" : "message",
					"numinlets" : 2,
					"numoutlets" : 1,
					"outlettype" : [ "" ],
					"patching_rect" : [ 675.75, 417.0, 29.5, 22.0 ],
					"text" : "36"
				}

			}
, 			{
				"box" : 				{
					"fontface" : 1,
					"fontsize" : 24.0,
					"id" : "obj-63",
					"maxclass" : "message",
					"numinlets" : 2,
					"numoutlets" : 1,
					"outlettype" : [ "" ],
					"patching_rect" : [ 712.0, 303.0, 91.0, 36.0 ],
					"presentation" : 1,
					"presentation_rect" : [ 126.0, 372.0, 97.0, 36.0 ],
					"style" : "chiba",
					"text" : "fox sex"
				}

			}
, 			{
				"box" : 				{
					"id" : "obj-39",
					"maxclass" : "message",
					"numinlets" : 2,
					"numoutlets" : 1,
					"outlettype" : [ "" ],
					"patching_rect" : [ 636.0, 417.0, 29.5, 22.0 ],
					"text" : "35"
				}

			}
, 			{
				"box" : 				{
					"id" : "obj-78",
					"maxclass" : "message",
					"numinlets" : 2,
					"numoutlets" : 1,
					"outlettype" : [ "" ],
					"patching_rect" : [ 594.0, 417.0, 29.5, 22.0 ],
					"text" : "34"
				}

			}
, 			{
				"box" : 				{
					"fontface" : 1,
					"fontsize" : 24.0,
					"id" : "obj-75",
					"maxclass" : "message",
					"numinlets" : 2,
					"numoutlets" : 1,
					"outlettype" : [ "" ],
					"patching_rect" : [ 689.75, 106.0, 82.0, 36.0 ],
					"presentation" : 1,
					"presentation_rect" : [ 576.0, 248.0, 83.0, 36.0 ],
					"style" : "chiba",
					"text" : "uterus"
				}

			}
, 			{
				"box" : 				{
					"id" : "obj-73",
					"maxclass" : "message",
					"numinlets" : 2,
					"numoutlets" : 1,
					"outlettype" : [ "" ],
					"patching_rect" : [ 555.0, 417.0, 29.5, 22.0 ],
					"text" : "33"
				}

			}
, 			{
				"box" : 				{
					"fontface" : 1,
					"fontsize" : 24.0,
					"id" : "obj-69",
					"maxclass" : "message",
					"numinlets" : 2,
					"numoutlets" : 1,
					"outlettype" : [ "" ],
					"patching_rect" : [ 662.75, 58.0, 97.0, 36.0 ],
					"presentation" : 1,
					"presentation_rect" : [ 543.0, 332.0, 102.0, 36.0 ],
					"style" : "chiba",
					"text" : "tinkerer"
				}

			}
, 			{
				"box" : 				{
					"id" : "obj-67",
					"maxclass" : "message",
					"numinlets" : 2,
					"numoutlets" : 1,
					"outlettype" : [ "" ],
					"patching_rect" : [ 510.0, 417.0, 29.5, 22.0 ],
					"text" : "32"
				}

			}
, 			{
				"box" : 				{
					"fontface" : 1,
					"fontsize" : 24.0,
					"id" : "obj-61",
					"maxclass" : "message",
					"numinlets" : 2,
					"numoutlets" : 1,
					"outlettype" : [ "" ],
					"patching_rect" : [ 594.0, 303.0, 105.0, 36.0 ],
					"presentation" : 1,
					"presentation_rect" : [ 418.0, 332.0, 116.0, 36.0 ],
					"style" : "chiba",
					"text" : "testicles"
				}

			}
, 			{
				"box" : 				{
					"id" : "obj-59",
					"maxclass" : "message",
					"numinlets" : 2,
					"numoutlets" : 1,
					"outlettype" : [ "" ],
					"patching_rect" : [ 469.0, 417.0, 29.5, 22.0 ],
					"text" : "31"
				}

			}
, 			{
				"box" : 				{
					"fontface" : 1,
					"fontsize" : 24.0,
					"id" : "obj-57",
					"maxclass" : "message",
					"numinlets" : 2,
					"numoutlets" : 1,
					"outlettype" : [ "" ],
					"patching_rect" : [ 561.0, 257.0, 158.0, 36.0 ],
					"presentation" : 1,
					"presentation_rect" : [ 330.0, 292.0, 161.0, 36.0 ],
					"style" : "chiba",
					"text" : "g'night gracy"
				}

			}
, 			{
				"box" : 				{
					"id" : "obj-55",
					"maxclass" : "message",
					"numinlets" : 2,
					"numoutlets" : 1,
					"outlettype" : [ "" ],
					"patching_rect" : [ 432.0, 417.0, 29.5, 22.0 ],
					"text" : "30"
				}

			}
, 			{
				"box" : 				{
					"fontface" : 1,
					"fontsize" : 24.0,
					"id" : "obj-53",
					"maxclass" : "message",
					"numinlets" : 2,
					"numoutlets" : 1,
					"outlettype" : [ "" ],
					"patching_rect" : [ 611.0, 207.0, 126.0, 36.0 ],
					"presentation" : 1,
					"presentation_rect" : [ 285.0, 332.0, 129.0, 36.0 ],
					"style" : "chiba",
					"text" : "party hard"
				}

			}
, 			{
				"box" : 				{
					"id" : "obj-45",
					"maxclass" : "message",
					"numinlets" : 2,
					"numoutlets" : 1,
					"outlettype" : [ "" ],
					"patching_rect" : [ 386.5, 417.0, 29.5, 22.0 ],
					"text" : "29"
				}

			}
, 			{
				"box" : 				{
					"fontface" : 1,
					"fontsize" : 24.0,
					"id" : "obj-43",
					"maxclass" : "message",
					"numinlets" : 2,
					"numoutlets" : 1,
					"outlettype" : [ "" ],
					"patching_rect" : [ 651.0, 158.0, 73.0, 36.0 ],
					"presentation" : 1,
					"presentation_rect" : [ 46.0, 372.0, 73.0, 36.0 ],
					"style" : "chiba",
					"text" : "never"
				}

			}
, 			{
				"box" : 				{
					"id" : "obj-41",
					"maxclass" : "message",
					"numinlets" : 2,
					"numoutlets" : 1,
					"outlettype" : [ "" ],
					"patching_rect" : [ 351.0, 417.0, 29.5, 22.0 ],
					"text" : "28"
				}

			}
, 			{
				"box" : 				{
					"fontface" : 1,
					"fontsize" : 24.0,
					"id" : "obj-37",
					"maxclass" : "message",
					"numinlets" : 2,
					"numoutlets" : 1,
					"outlettype" : [ "" ],
					"patching_rect" : [ 477.0, 257.0, 75.0, 36.0 ],
					"presentation" : 1,
					"presentation_rect" : [ 46.0, 292.0, 77.0, 36.0 ],
					"style" : "chiba",
					"text" : "birds!"
				}

			}
, 			{
				"box" : 				{
					"id" : "obj-29",
					"maxclass" : "message",
					"numinlets" : 2,
					"numoutlets" : 1,
					"outlettype" : [ "" ],
					"patching_rect" : [ 303.75, 417.0, 29.5, 22.0 ],
					"text" : "27"
				}

			}
, 			{
				"box" : 				{
					"fontface" : 1,
					"fontsize" : 24.0,
					"id" : "obj-25",
					"maxclass" : "message",
					"numinlets" : 2,
					"numoutlets" : 1,
					"outlettype" : [ "" ],
					"patching_rect" : [ 458.0, 207.0, 137.0, 36.0 ],
					"presentation" : 1,
					"presentation_rect" : [ 499.0, 292.0, 138.5, 36.0 ],
					"style" : "chiba",
					"text" : "beatboxing"
				}

			}
, 			{
				"box" : 				{
					"id" : "obj-23",
					"maxclass" : "message",
					"numinlets" : 2,
					"numoutlets" : 1,
					"outlettype" : [ "" ],
					"patching_rect" : [ 265.0, 417.0, 29.5, 22.0 ],
					"text" : "26"
				}

			}
, 			{
				"box" : 				{
					"fontface" : 1,
					"fontsize" : 24.0,
					"id" : "obj-21",
					"maxclass" : "message",
					"numinlets" : 2,
					"numoutlets" : 1,
					"outlettype" : [ "" ],
					"patching_rect" : [ 450.5, 158.0, 190.0, 36.0 ],
					"presentation" : 1,
					"presentation_rect" : [ 131.5, 292.0, 193.0, 36.0 ],
					"style" : "chiba",
					"text" : "Beat you Down!"
				}

			}
, 			{
				"box" : 				{
					"id" : "obj-19",
					"maxclass" : "message",
					"numinlets" : 2,
					"numoutlets" : 1,
					"outlettype" : [ "" ],
					"patching_rect" : [ 227.75, 417.0, 29.5, 22.0 ],
					"text" : "25"
				}

			}
, 			{
				"box" : 				{
					"fontface" : 1,
					"fontsize" : 24.0,
					"id" : "obj-1",
					"maxclass" : "message",
					"numinlets" : 2,
					"numoutlets" : 1,
					"outlettype" : [ "" ],
					"patching_rect" : [ 458.0, 106.0, 221.0, 36.0 ],
					"presentation" : 1,
					"presentation_rect" : [ 46.0, 332.0, 228.0, 36.0 ],
					"style" : "chiba",
					"text" : "Arching Electricity"
				}

			}
, 			{
				"box" : 				{
					"id" : "obj-76",
					"maxclass" : "message",
					"numinlets" : 2,
					"numoutlets" : 1,
					"outlettype" : [ "" ],
					"patching_rect" : [ 182.0, 417.0, 29.5, 22.0 ],
					"text" : "24"
				}

			}
, 			{
				"box" : 				{
					"id" : "obj-74",
					"maxclass" : "message",
					"numinlets" : 2,
					"numoutlets" : 1,
					"outlettype" : [ "" ],
					"patching_rect" : [ 143.0, 417.0, 29.5, 22.0 ],
					"text" : "23"
				}

			}
, 			{
				"box" : 				{
					"id" : "obj-72",
					"maxclass" : "message",
					"numinlets" : 2,
					"numoutlets" : 1,
					"outlettype" : [ "" ],
					"patching_rect" : [ 98.0, 417.0, 29.5, 22.0 ],
					"text" : "22"
				}

			}
, 			{
				"box" : 				{
					"id" : "obj-70",
					"maxclass" : "message",
					"numinlets" : 2,
					"numoutlets" : 1,
					"outlettype" : [ "" ],
					"patching_rect" : [ 57.0, 417.0, 29.5, 22.0 ],
					"text" : "21"
				}

			}
, 			{
				"box" : 				{
					"id" : "obj-68",
					"maxclass" : "message",
					"numinlets" : 2,
					"numoutlets" : 1,
					"outlettype" : [ "" ],
					"patching_rect" : [ 843.0, 387.0, 29.5, 22.0 ],
					"text" : "20"
				}

			}
, 			{
				"box" : 				{
					"id" : "obj-66",
					"maxclass" : "message",
					"numinlets" : 2,
					"numoutlets" : 1,
					"outlettype" : [ "" ],
					"patching_rect" : [ 801.0, 387.0, 29.5, 22.0 ],
					"text" : "19"
				}

			}
, 			{
				"box" : 				{
					"id" : "obj-64",
					"maxclass" : "message",
					"numinlets" : 2,
					"numoutlets" : 1,
					"outlettype" : [ "" ],
					"patching_rect" : [ 762.0, 387.0, 29.5, 22.0 ],
					"text" : "18"
				}

			}
, 			{
				"box" : 				{
					"id" : "obj-62",
					"maxclass" : "message",
					"numinlets" : 2,
					"numoutlets" : 1,
					"outlettype" : [ "" ],
					"patching_rect" : [ 717.0, 387.0, 29.5, 22.0 ],
					"text" : "17"
				}

			}
, 			{
				"box" : 				{
					"id" : "obj-60",
					"maxclass" : "message",
					"numinlets" : 2,
					"numoutlets" : 1,
					"outlettype" : [ "" ],
					"patching_rect" : [ 676.0, 387.0, 29.5, 22.0 ],
					"text" : "16"
				}

			}
, 			{
				"box" : 				{
					"id" : "obj-58",
					"maxclass" : "message",
					"numinlets" : 2,
					"numoutlets" : 1,
					"outlettype" : [ "" ],
					"patching_rect" : [ 636.0, 387.0, 29.5, 22.0 ],
					"text" : "15"
				}

			}
, 			{
				"box" : 				{
					"id" : "obj-56",
					"maxclass" : "message",
					"numinlets" : 2,
					"numoutlets" : 1,
					"outlettype" : [ "" ],
					"patching_rect" : [ 594.0, 387.0, 29.5, 22.0 ],
					"text" : "14"
				}

			}
, 			{
				"box" : 				{
					"id" : "obj-54",
					"maxclass" : "message",
					"numinlets" : 2,
					"numoutlets" : 1,
					"outlettype" : [ "" ],
					"patching_rect" : [ 555.0, 387.0, 29.5, 22.0 ],
					"text" : "13"
				}

			}
, 			{
				"box" : 				{
					"id" : "obj-52",
					"maxclass" : "message",
					"numinlets" : 2,
					"numoutlets" : 1,
					"outlettype" : [ "" ],
					"patching_rect" : [ 510.0, 387.0, 29.5, 22.0 ],
					"text" : "12"
				}

			}
, 			{
				"box" : 				{
					"id" : "obj-50",
					"maxclass" : "message",
					"numinlets" : 2,
					"numoutlets" : 1,
					"outlettype" : [ "" ],
					"patching_rect" : [ 469.0, 387.0, 29.5, 22.0 ],
					"text" : "11"
				}

			}
, 			{
				"box" : 				{
					"id" : "obj-48",
					"maxclass" : "message",
					"numinlets" : 2,
					"numoutlets" : 1,
					"outlettype" : [ "" ],
					"patching_rect" : [ 432.0, 387.0, 29.5, 22.0 ],
					"text" : "10"
				}

			}
, 			{
				"box" : 				{
					"id" : "obj-46",
					"maxclass" : "message",
					"numinlets" : 2,
					"numoutlets" : 1,
					"outlettype" : [ "" ],
					"patching_rect" : [ 390.0, 387.0, 29.5, 22.0 ],
					"text" : "9"
				}

			}
, 			{
				"box" : 				{
					"id" : "obj-5",
					"maxclass" : "message",
					"numinlets" : 2,
					"numoutlets" : 1,
					"outlettype" : [ "" ],
					"patching_rect" : [ 351.0, 387.0, 29.5, 22.0 ],
					"text" : "8"
				}

			}
, 			{
				"box" : 				{
					"id" : "obj-7",
					"maxclass" : "message",
					"numinlets" : 2,
					"numoutlets" : 1,
					"outlettype" : [ "" ],
					"patching_rect" : [ 306.0, 387.0, 29.5, 22.0 ],
					"text" : "7"
				}

			}
, 			{
				"box" : 				{
					"id" : "obj-9",
					"maxclass" : "message",
					"numinlets" : 2,
					"numoutlets" : 1,
					"outlettype" : [ "" ],
					"patching_rect" : [ 265.0, 387.0, 29.5, 22.0 ],
					"text" : "6"
				}

			}
, 			{
				"box" : 				{
					"id" : "obj-11",
					"maxclass" : "message",
					"numinlets" : 2,
					"numoutlets" : 1,
					"outlettype" : [ "" ],
					"patching_rect" : [ 225.0, 387.0, 29.5, 22.0 ],
					"text" : "5"
				}

			}
, 			{
				"box" : 				{
					"id" : "obj-13",
					"maxclass" : "message",
					"numinlets" : 2,
					"numoutlets" : 1,
					"outlettype" : [ "" ],
					"patching_rect" : [ 183.0, 387.0, 29.5, 22.0 ],
					"text" : "4"
				}

			}
, 			{
				"box" : 				{
					"id" : "obj-35",
					"maxclass" : "message",
					"numinlets" : 2,
					"numoutlets" : 1,
					"outlettype" : [ "" ],
					"patching_rect" : [ 144.0, 387.0, 29.5, 22.0 ],
					"text" : "3"
				}

			}
, 			{
				"box" : 				{
					"id" : "obj-33",
					"maxclass" : "message",
					"numinlets" : 2,
					"numoutlets" : 1,
					"outlettype" : [ "" ],
					"patching_rect" : [ 99.0, 387.0, 29.5, 22.0 ],
					"text" : "2"
				}

			}
, 			{
				"box" : 				{
					"id" : "obj-31",
					"maxclass" : "message",
					"numinlets" : 2,
					"numoutlets" : 1,
					"outlettype" : [ "" ],
					"patching_rect" : [ 58.0, 387.0, 29.5, 22.0 ],
					"text" : "1"
				}

			}
, 			{
				"box" : 				{
					"basictuning" : 440,
					"clipheight" : 20.0,
					"data" : 					{
						"clips" : [ 							{
								"absolutepath" : "Activate.wav",
								"filename" : "Activate.wav",
								"filekind" : "audiofile",
								"id" : "u231000390",
								"selection" : [ 0.0, 1.0 ],
								"loop" : 0,
								"content_state" : 								{

								}

							}
, 							{
								"absolutepath" : "Belt Buckle.wav",
								"filename" : "Belt Buckle.wav",
								"filekind" : "audiofile",
								"id" : "u921000387",
								"selection" : [ 0.0, 1.0 ],
								"loop" : 0,
								"content_state" : 								{

								}

							}
, 							{
								"absolutepath" : "Bleeding Out.wav",
								"filename" : "Bleeding Out.wav",
								"filekind" : "audiofile",
								"id" : "u854000393",
								"selection" : [ 0.0, 1.0 ],
								"loop" : 0,
								"content_state" : 								{

								}

							}
, 							{
								"absolutepath" : "blinded by the light.wav",
								"filename" : "blinded by the light.wav",
								"filekind" : "audiofile",
								"id" : "u981000396",
								"selection" : [ 0.0, 1.0 ],
								"loop" : 0,
								"content_state" : 								{

								}

							}
, 							{
								"absolutepath" : "boop-ba-da-doip.wav",
								"filename" : "boop-ba-da-doip.wav",
								"filekind" : "audiofile",
								"id" : "u983000399",
								"selection" : [ 0.0, 1.0 ],
								"loop" : 0,
								"content_state" : 								{

								}

							}
, 							{
								"absolutepath" : "box.wav",
								"filename" : "box.wav",
								"filekind" : "audiofile",
								"id" : "u730000402",
								"selection" : [ 0.0, 1.0 ],
								"loop" : 0,
								"content_state" : 								{

								}

							}
, 							{
								"absolutepath" : "dead dog.wav",
								"filename" : "dead dog.wav",
								"filekind" : "audiofile",
								"id" : "u034000423",
								"selection" : [ 0.0, 1.0 ],
								"loop" : 0,
								"content_state" : 								{

								}

							}
, 							{
								"absolutepath" : "Down in a hole.wav",
								"filename" : "Down in a hole.wav",
								"filekind" : "audiofile",
								"id" : "u863000405",
								"selection" : [ 0.0, 1.0 ],
								"loop" : 0,
								"content_state" : 								{

								}

							}
, 							{
								"absolutepath" : "DRng!.wav",
								"filename" : "DRng!.wav",
								"filekind" : "audiofile",
								"id" : "u284000406",
								"selection" : [ 0.0, 1.0 ],
								"loop" : 0,
								"content_state" : 								{

								}

							}
, 							{
								"absolutepath" : "eyes melting.wav",
								"filename" : "eyes melting.wav",
								"filekind" : "audiofile",
								"id" : "u612000407",
								"selection" : [ 0.0, 1.0 ],
								"loop" : 0,
								"content_state" : 								{

								}

							}
, 							{
								"absolutepath" : "gun shots.wav",
								"filename" : "gun shots.wav",
								"filekind" : "audiofile",
								"id" : "u150000408",
								"selection" : [ 0.0, 1.0 ],
								"loop" : 0,
								"content_state" : 								{

								}

							}
, 							{
								"absolutepath" : "I am so tigh right now.wav",
								"filename" : "I am so tigh right now.wav",
								"filekind" : "audiofile",
								"id" : "u478000409",
								"selection" : [ 0.0, 1.0 ],
								"loop" : 0,
								"content_state" : 								{

								}

							}
, 							{
								"absolutepath" : "Iiiit's a rolloff!.wav",
								"filename" : "Iiiit's a rolloff!.wav",
								"filekind" : "audiofile",
								"id" : "u022000410",
								"selection" : [ 0.0, 1.0 ],
								"loop" : 0,
								"content_state" : 								{

								}

							}
, 							{
								"absolutepath" : "Jungle mix.wav",
								"filename" : "Jungle mix.wav",
								"filekind" : "audiofile",
								"id" : "u150000493",
								"selection" : [ 0.0, 1.0 ],
								"loop" : 0,
								"content_state" : 								{

								}

							}
, 							{
								"absolutepath" : "Million Dollars.wav",
								"filename" : "Million Dollars.wav",
								"filekind" : "audiofile",
								"id" : "u552000413",
								"selection" : [ 0.0, 1.0 ],
								"loop" : 0,
								"content_state" : 								{

								}

							}
, 							{
								"absolutepath" : "NODE!.wav",
								"filename" : "NODE!.wav",
								"filekind" : "audiofile",
								"id" : "u011000414",
								"selection" : [ 0.0, 1.0 ],
								"loop" : 0,
								"content_state" : 								{

								}

							}
, 							{
								"absolutepath" : "on the line (mother's head).wav",
								"filename" : "on the line (mother's head).wav",
								"filekind" : "audiofile",
								"id" : "u442000415",
								"selection" : [ 0.0, 1.0 ],
								"loop" : 0,
								"content_state" : 								{

								}

							}
, 							{
								"absolutepath" : "phone call.wav",
								"filename" : "phone call.wav",
								"filekind" : "audiofile",
								"id" : "u175000416",
								"selection" : [ 0.0, 1.0 ],
								"loop" : 0,
								"content_state" : 								{

								}

							}
, 							{
								"absolutepath" : "ravens 1.wav",
								"filename" : "ravens 1.wav",
								"filekind" : "audiofile",
								"id" : "u683000417",
								"selection" : [ 0.0, 1.0 ],
								"loop" : 0,
								"content_state" : 								{

								}

							}
, 							{
								"absolutepath" : "ravens 2.wav",
								"filename" : "ravens 2.wav",
								"filekind" : "audiofile",
								"id" : "u513000418",
								"selection" : [ 0.0, 1.0 ],
								"loop" : 0,
								"content_state" : 								{

								}

							}
, 							{
								"absolutepath" : "ravens 3.wav",
								"filename" : "ravens 3.wav",
								"filekind" : "audiofile",
								"id" : "u988000419",
								"selection" : [ 0.0, 1.0 ],
								"loop" : 0,
								"content_state" : 								{

								}

							}
, 							{
								"absolutepath" : "Ruth - be a doll.wav",
								"filename" : "Ruth - be a doll.wav",
								"filekind" : "audiofile",
								"id" : "u847000420",
								"selection" : [ 0.0, 1.0 ],
								"loop" : 0,
								"content_state" : 								{

								}

							}
, 							{
								"absolutepath" : "symmetry.wav",
								"filename" : "symmetry.wav",
								"filekind" : "audiofile",
								"id" : "u596000421",
								"selection" : [ 0.0, 1.0 ],
								"loop" : 0,
								"content_state" : 								{

								}

							}
, 							{
								"absolutepath" : "they're killing me.wav",
								"filename" : "they're killing me.wav",
								"filekind" : "audiofile",
								"id" : "u008000422",
								"selection" : [ 0.0, 1.0 ],
								"loop" : 0,
								"content_state" : 								{

								}

							}
, 							{
								"absolutepath" : "arching electricity.wav",
								"filename" : "arching electricity.wav",
								"filekind" : "audiofile",
								"id" : "u033000422",
								"selection" : [ 0.0, 1.0 ],
								"loop" : 0,
								"content_state" : 								{

								}

							}
, 							{
								"absolutepath" : "beat you down!.wav",
								"filename" : "beat you down!.wav",
								"filekind" : "audiofile",
								"id" : "u332000427",
								"selection" : [ 0.0, 1.0 ],
								"loop" : 0,
								"content_state" : 								{

								}

							}
, 							{
								"absolutepath" : "beatboxing.wav",
								"filename" : "beatboxing.wav",
								"filekind" : "audiofile",
								"id" : "u187000430",
								"selection" : [ 0.0, 1.0 ],
								"loop" : 0,
								"content_state" : 								{

								}

							}
, 							{
								"absolutepath" : "Fuck you birds!.wav",
								"filename" : "Fuck you birds!.wav",
								"filekind" : "audiofile",
								"id" : "u697000433",
								"selection" : [ 0.0, 1.0 ],
								"loop" : 0,
								"content_state" : 								{

								}

							}
, 							{
								"absolutepath" : "never ask that on the stream.wav",
								"filename" : "never ask that on the stream.wav",
								"filekind" : "audiofile",
								"id" : "u442000436",
								"selection" : [ 0.0, 1.0 ],
								"loop" : 0,
								"content_state" : 								{

								}

							}
, 							{
								"absolutepath" : "Party hard.wav",
								"filename" : "Party hard.wav",
								"filekind" : "audiofile",
								"id" : "u650000439",
								"selection" : [ 0.0, 1.0 ],
								"loop" : 0,
								"content_state" : 								{

								}

							}
, 							{
								"absolutepath" : "say goodnight gracy.wav",
								"filename" : "say goodnight gracy.wav",
								"filekind" : "audiofile",
								"id" : "u589000442",
								"selection" : [ 0.0, 1.0 ],
								"loop" : 0,
								"content_state" : 								{

								}

							}
, 							{
								"absolutepath" : "testicles.wav",
								"filename" : "testicles.wav",
								"filekind" : "audiofile",
								"id" : "u460000446",
								"selection" : [ 0.0, 1.0 ],
								"loop" : 0,
								"content_state" : 								{

								}

							}
, 							{
								"absolutepath" : "Tinkerer.wav",
								"filename" : "Tinkerer.wav",
								"filekind" : "audiofile",
								"id" : "u192000449",
								"selection" : [ 0.0, 1.0 ],
								"loop" : 0,
								"content_state" : 								{

								}

							}
, 							{
								"absolutepath" : "uterus.wav",
								"filename" : "uterus.wav",
								"filekind" : "audiofile",
								"id" : "u512000452",
								"selection" : [ 0.0, 1.0 ],
								"loop" : 0,
								"content_state" : 								{

								}

							}
, 							{
								"absolutepath" : "fox sex.wav",
								"filename" : "fox sex.wav",
								"filekind" : "audiofile",
								"id" : "u249000578",
								"selection" : [ 0.0, 1.0 ],
								"loop" : 0,
								"content_state" : 								{

								}

							}
, 							{
								"absolutepath" : "Ah My Dick!.wav",
								"filename" : "Ah My Dick!.wav",
								"filekind" : "audiofile",
								"id" : "u405000456",
								"selection" : [ 0.0, 1.0 ],
								"loop" : 0,
								"content_state" : 								{

								}

							}
, 							{
								"absolutepath" : "BARK BARK.wav",
								"filename" : "BARK BARK.wav",
								"filekind" : "audiofile",
								"id" : "u708000460",
								"selection" : [ 0.0, 1.0 ],
								"loop" : 0,
								"content_state" : 								{

								}

							}
, 							{
								"absolutepath" : "Laser 1.wav",
								"filename" : "Laser 1.wav",
								"filekind" : "audiofile",
								"id" : "u688000463",
								"selection" : [ 0.0, 1.0 ],
								"loop" : 0,
								"content_state" : 								{

								}

							}
, 							{
								"absolutepath" : "Laser 2.wav",
								"filename" : "Laser 2.wav",
								"filekind" : "audiofile",
								"id" : "u995000466",
								"selection" : [ 0.0, 1.0 ],
								"loop" : 0,
								"content_state" : 								{

								}

							}
, 							{
								"absolutepath" : "Laser 3.wav",
								"filename" : "Laser 3.wav",
								"filekind" : "audiofile",
								"id" : "u227000469",
								"selection" : [ 0.0, 1.0 ],
								"loop" : 0,
								"content_state" : 								{

								}

							}
, 							{
								"absolutepath" : "Robodog.wav",
								"filename" : "Robodog.wav",
								"filekind" : "audiofile",
								"id" : "u342000473",
								"selection" : [ 0.0, 1.0 ],
								"loop" : 0,
								"content_state" : 								{

								}

							}
, 							{
								"absolutepath" : "Underground Alarm.wav",
								"filename" : "Underground Alarm.wav",
								"filekind" : "audiofile",
								"id" : "u765000476",
								"selection" : [ 0.0, 1.0 ],
								"loop" : 0,
								"content_state" : 								{

								}

							}
 ]
					}
,
					"followglobaltempo" : 0,
					"formantcorrection" : 0,
					"id" : "obj-15",
					"maxclass" : "playlist~",
					"mode" : "basic",
					"numinlets" : 1,
					"numoutlets" : 5,
					"originallength" : [ 0.0, "ticks" ],
					"originaltempo" : 120.0,
					"outlettype" : [ "signal", "signal", "signal", "", "dictionary" ],
					"parameter_enable" : 0,
					"patching_rect" : [ 58.0, 513.5, 1000.0, 249.0 ],
					"pitchcorrection" : 0,
					"quality" : "basic",
					"timestretch" : [ 0 ]
				}

			}
, 			{
				"box" : 				{
					"id" : "obj-3",
					"maxclass" : "newobj",
					"numinlets" : 1,
					"numoutlets" : 1,
					"outlettype" : [ "" ],
					"patching_rect" : [ 53.0, 13.0, 70.0, 22.0 ],
					"text" : "loadmess 1"
				}

			}
, 			{
				"box" : 				{
					"fontface" : 1,
					"fontsize" : 24.0,
					"id" : "obj-51",
					"maxclass" : "message",
					"numinlets" : 2,
					"numoutlets" : 1,
					"outlettype" : [ "" ],
					"patching_rect" : [ 46.0, 303.0, 99.0, 36.0 ],
					"presentation" : 1,
					"presentation_rect" : [ 155.0, 248.0, 99.0, 36.0 ],
					"style" : "chiba",
					"text" : "ravens3"
				}

			}
, 			{
				"box" : 				{
					"fontface" : 1,
					"fontsize" : 24.0,
					"id" : "obj-49",
					"maxclass" : "message",
					"numinlets" : 2,
					"numoutlets" : 1,
					"outlettype" : [ "" ],
					"patching_rect" : [ 368.0, 303.0, 204.0, 36.0 ],
					"presentation" : 1,
					"presentation_rect" : [ 364.0, 248.0, 204.0, 36.0 ],
					"style" : "chiba",
					"text" : "they're killing me"
				}

			}
, 			{
				"box" : 				{
					"fontface" : 1,
					"fontsize" : 24.0,
					"id" : "obj-47",
					"maxclass" : "message",
					"numinlets" : 2,
					"numoutlets" : 1,
					"outlettype" : [ "" ],
					"patching_rect" : [ 256.0, 303.0, 125.0, 36.0 ],
					"presentation" : 1,
					"presentation_rect" : [ 586.0, 109.0, 125.0, 36.0 ],
					"style" : "chiba",
					"text" : "Symmetry"
				}

			}
, 			{
				"box" : 				{
					"fontface" : 1,
					"fontsize" : 24.0,
					"id" : "obj-44",
					"maxclass" : "message",
					"numinlets" : 2,
					"numoutlets" : 1,
					"outlettype" : [ "" ],
					"patching_rect" : [ 165.5, 303.0, 63.0, 36.0 ],
					"presentation" : 1,
					"presentation_rect" : [ 621.0, 158.0, 63.0, 36.0 ],
					"style" : "chiba",
					"text" : "Ruth"
				}

			}
, 			{
				"box" : 				{
					"fontface" : 1,
					"fontsize" : 24.0,
					"id" : "obj-42",
					"maxclass" : "message",
					"numinlets" : 2,
					"numoutlets" : 1,
					"outlettype" : [ "" ],
					"patching_rect" : [ 368.0, 257.0, 99.0, 36.0 ],
					"presentation" : 1,
					"presentation_rect" : [ 46.0, 248.0, 99.0, 36.0 ],
					"style" : "chiba",
					"text" : "ravens2"
				}

			}
, 			{
				"box" : 				{
					"fontface" : 1,
					"fontsize" : 24.0,
					"id" : "obj-40",
					"maxclass" : "message",
					"numinlets" : 2,
					"numoutlets" : 1,
					"outlettype" : [ "" ],
					"patching_rect" : [ 256.0, 257.0, 99.0, 36.0 ],
					"presentation" : 1,
					"presentation_rect" : [ 259.5, 248.0, 99.0, 36.0 ],
					"style" : "chiba",
					"text" : "ravens1"
				}

			}
, 			{
				"box" : 				{
					"fontface" : 1,
					"fontsize" : 24.0,
					"id" : "obj-38",
					"maxclass" : "message",
					"numinlets" : 2,
					"numoutlets" : 1,
					"outlettype" : [ "" ],
					"patching_rect" : [ 165.5, 257.0, 80.0, 36.0 ],
					"presentation" : 1,
					"presentation_rect" : [ 407.0, 202.0, 80.0, 36.0 ],
					"style" : "chiba",
					"text" : "phone"
				}

			}
, 			{
				"box" : 				{
					"fontface" : 1,
					"fontsize" : 24.0,
					"id" : "obj-36",
					"maxclass" : "message",
					"numinlets" : 2,
					"numoutlets" : 1,
					"outlettype" : [ "" ],
					"patching_rect" : [ 46.0, 257.0, 128.0, 36.0 ],
					"presentation" : 1,
					"presentation_rect" : [ 491.0, 202.0, 128.0, 36.0 ],
					"style" : "chiba",
					"text" : "on the line"
				}

			}
, 			{
				"box" : 				{
					"fontface" : 1,
					"fontsize" : 24.0,
					"id" : "obj-34",
					"maxclass" : "message",
					"numinlets" : 2,
					"numoutlets" : 1,
					"outlettype" : [ "" ],
					"patching_rect" : [ 368.0, 207.0, 86.0, 36.0 ],
					"presentation" : 1,
					"presentation_rect" : [ 313.0, 202.0, 86.0, 36.0 ],
					"style" : "chiba",
					"text" : "NODE!"
				}

			}
, 			{
				"box" : 				{
					"fontface" : 1,
					"fontsize" : 24.0,
					"id" : "obj-32",
					"maxclass" : "message",
					"numinlets" : 2,
					"numoutlets" : 1,
					"outlettype" : [ "" ],
					"patching_rect" : [ 256.0, 207.0, 171.0, 36.0 ],
					"presentation" : 1,
					"presentation_rect" : [ 131.5, 202.0, 171.0, 36.0 ],
					"style" : "chiba",
					"text" : "million dollars"
				}

			}
, 			{
				"box" : 				{
					"fontface" : 1,
					"fontsize" : 24.0,
					"id" : "obj-30",
					"maxclass" : "message",
					"numinlets" : 2,
					"numoutlets" : 1,
					"outlettype" : [ "" ],
					"patching_rect" : [ 165.5, 207.0, 79.0, 36.0 ],
					"presentation" : 1,
					"presentation_rect" : [ 46.0, 202.0, 79.0, 36.0 ],
					"style" : "chiba",
					"text" : "jungle"
				}

			}
, 			{
				"box" : 				{
					"fontface" : 1,
					"fontsize" : 24.0,
					"id" : "obj-28",
					"maxclass" : "message",
					"numinlets" : 2,
					"numoutlets" : 1,
					"outlettype" : [ "" ],
					"patching_rect" : [ 46.0, 207.0, 84.0, 36.0 ],
					"presentation" : 1,
					"presentation_rect" : [ 529.0, 158.0, 84.0, 36.0 ],
					"style" : "chiba",
					"text" : "rolloff!"
				}

			}
, 			{
				"box" : 				{
					"fontface" : 1,
					"fontsize" : 24.0,
					"id" : "obj-26",
					"maxclass" : "message",
					"numinlets" : 2,
					"numoutlets" : 1,
					"outlettype" : [ "" ],
					"patching_rect" : [ 368.0, 158.0, 60.0, 36.0 ],
					"presentation" : 1,
					"presentation_rect" : [ 462.0, 158.0, 60.0, 36.0 ],
					"style" : "chiba",
					"text" : "tight"
				}

			}
, 			{
				"box" : 				{
					"fontface" : 1,
					"fontsize" : 24.0,
					"id" : "obj-24",
					"maxclass" : "message",
					"numinlets" : 2,
					"numoutlets" : 1,
					"outlettype" : [ "" ],
					"patching_rect" : [ 256.0, 158.0, 123.0, 36.0 ],
					"presentation" : 1,
					"presentation_rect" : [ 330.0, 158.0, 123.0, 36.0 ],
					"style" : "chiba",
					"text" : "gun shots"
				}

			}
, 			{
				"box" : 				{
					"fontface" : 1,
					"fontsize" : 24.0,
					"id" : "obj-22",
					"maxclass" : "message",
					"numinlets" : 2,
					"numoutlets" : 1,
					"outlettype" : [ "" ],
					"patching_rect" : [ 165.5, 158.0, 154.0, 36.0 ],
					"presentation" : 1,
					"presentation_rect" : [ 167.5, 158.0, 154.0, 36.0 ],
					"style" : "chiba",
					"text" : "eyes melting"
				}

			}
, 			{
				"box" : 				{
					"fontface" : 1,
					"fontsize" : 24.0,
					"id" : "obj-20",
					"maxclass" : "message",
					"numinlets" : 2,
					"numoutlets" : 1,
					"outlettype" : [ "" ],
					"patching_rect" : [ 368.0, 106.0, 80.0, 36.0 ],
					"presentation" : 1,
					"presentation_rect" : [ 499.0, 109.0, 80.0, 36.0 ],
					"style" : "chiba",
					"text" : "DRng!"
				}

			}
, 			{
				"box" : 				{
					"fontface" : 1,
					"fontsize" : 24.0,
					"id" : "obj-18",
					"maxclass" : "message",
					"numinlets" : 2,
					"numoutlets" : 1,
					"outlettype" : [ "" ],
					"patching_rect" : [ 256.0, 106.0, 175.0, 36.0 ],
					"presentation" : 1,
					"presentation_rect" : [ 317.0, 109.0, 175.0, 36.0 ],
					"style" : "chiba",
					"text" : "down in a hole"
				}

			}
, 			{
				"box" : 				{
					"fontface" : 1,
					"fontsize" : 24.0,
					"id" : "obj-16",
					"maxclass" : "message",
					"numinlets" : 2,
					"numoutlets" : 1,
					"outlettype" : [ "" ],
					"patching_rect" : [ 46.0, 158.0, 115.0, 36.0 ],
					"presentation" : 1,
					"presentation_rect" : [ 46.0, 158.0, 115.0, 36.0 ],
					"style" : "chiba",
					"text" : "dead dog"
				}

			}
, 			{
				"box" : 				{
					"fontface" : 1,
					"fontsize" : 24.0,
					"id" : "obj-14",
					"maxclass" : "message",
					"numinlets" : 2,
					"numoutlets" : 1,
					"outlettype" : [ "" ],
					"patching_rect" : [ 165.5, 106.0, 56.0, 36.0 ],
					"presentation" : 1,
					"presentation_rect" : [ 46.0, 109.0, 56.0, 36.0 ],
					"style" : "chiba",
					"text" : "box"
				}

			}
, 			{
				"box" : 				{
					"fontface" : 1,
					"fontsize" : 24.0,
					"id" : "obj-12",
					"maxclass" : "message",
					"numinlets" : 2,
					"numoutlets" : 1,
					"outlettype" : [ "" ],
					"patching_rect" : [ 46.0, 106.0, 198.0, 36.0 ],
					"presentation" : 1,
					"presentation_rect" : [ 110.5, 109.0, 198.0, 36.0 ],
					"style" : "chiba",
					"text" : "boop-ba-da-doip"
				}

			}
, 			{
				"box" : 				{
					"fontface" : 1,
					"fontsize" : 24.0,
					"id" : "obj-10",
					"maxclass" : "message",
					"numinlets" : 2,
					"numoutlets" : 1,
					"outlettype" : [ "" ],
					"patching_rect" : [ 420.0, 58.0, 228.0, 36.0 ],
					"presentation" : 1,
					"presentation_rect" : [ 448.0, 66.0, 228.0, 36.0 ],
					"style" : "chiba",
					"text" : "blinded by the light"
				}

			}
, 			{
				"box" : 				{
					"fontface" : 1,
					"fontsize" : 24.0,
					"id" : "obj-8",
					"maxclass" : "message",
					"numinlets" : 2,
					"numoutlets" : 1,
					"outlettype" : [ "" ],
					"patching_rect" : [ 256.0, 58.0, 151.0, 36.0 ],
					"presentation" : 1,
					"presentation_rect" : [ 290.0, 66.0, 151.0, 36.0 ],
					"style" : "chiba",
					"text" : "bleeding out"
				}

			}
, 			{
				"box" : 				{
					"fontface" : 1,
					"fontsize" : 24.0,
					"id" : "obj-6",
					"maxclass" : "message",
					"numinlets" : 2,
					"numoutlets" : 1,
					"outlettype" : [ "" ],
					"patching_rect" : [ 165.5, 58.0, 134.0, 36.0 ],
					"presentation" : 1,
					"presentation_rect" : [ 151.0, 66.0, 134.0, 36.0 ],
					"style" : "chiba",
					"text" : "belt buckle"
				}

			}
, 			{
				"box" : 				{
					"fontface" : 1,
					"fontsize" : 24.0,
					"id" : "obj-4",
					"maxclass" : "message",
					"numinlets" : 2,
					"numoutlets" : 1,
					"outlettype" : [ "" ],
					"patching_rect" : [ 46.0, 58.0, 98.0, 36.0 ],
					"presentation" : 1,
					"presentation_rect" : [ 46.0, 66.0, 98.0, 36.0 ],
					"style" : "chiba",
					"text" : "activate"
				}

			}
, 			{
				"box" : 				{
					"id" : "obj-2",
					"maxclass" : "ezdac~",
					"numinlets" : 2,
					"numoutlets" : 0,
					"patching_rect" : [ 64.0, 813.0, 45.0, 45.0 ]
				}

			}
 ],
		"lines" : [ 			{
				"patchline" : 				{
					"destination" : [ "obj-19", 0 ],
					"source" : [ "obj-1", 0 ]
				}

			}
, 			{
				"patchline" : 				{
					"destination" : [ "obj-13", 0 ],
					"source" : [ "obj-10", 0 ]
				}

			}
, 			{
				"patchline" : 				{
					"destination" : [ "obj-15", 0 ],
					"source" : [ "obj-11", 0 ]
				}

			}
, 			{
				"patchline" : 				{
					"destination" : [ "obj-11", 0 ],
					"source" : [ "obj-12", 0 ]
				}

			}
, 			{
				"patchline" : 				{
					"destination" : [ "obj-15", 0 ],
					"source" : [ "obj-13", 0 ]
				}

			}
, 			{
				"patchline" : 				{
					"destination" : [ "obj-9", 0 ],
					"source" : [ "obj-14", 0 ]
				}

			}
, 			{
				"patchline" : 				{
					"destination" : [ "obj-2", 1 ],
					"order" : 0,
					"source" : [ "obj-15", 0 ]
				}

			}
, 			{
				"patchline" : 				{
					"destination" : [ "obj-2", 0 ],
					"order" : 1,
					"source" : [ "obj-15", 0 ]
				}

			}
, 			{
				"patchline" : 				{
					"destination" : [ "obj-7", 0 ],
					"source" : [ "obj-16", 0 ]
				}

			}
, 			{
				"patchline" : 				{
					"destination" : [ "obj-5", 0 ],
					"source" : [ "obj-18", 0 ]
				}

			}
, 			{
				"patchline" : 				{
					"destination" : [ "obj-15", 0 ],
					"source" : [ "obj-19", 0 ]
				}

			}
, 			{
				"patchline" : 				{
					"destination" : [ "obj-46", 0 ],
					"source" : [ "obj-20", 0 ]
				}

			}
, 			{
				"patchline" : 				{
					"destination" : [ "obj-23", 0 ],
					"source" : [ "obj-21", 0 ]
				}

			}
, 			{
				"patchline" : 				{
					"destination" : [ "obj-48", 0 ],
					"source" : [ "obj-22", 0 ]
				}

			}
, 			{
				"patchline" : 				{
					"destination" : [ "obj-15", 0 ],
					"source" : [ "obj-23", 0 ]
				}

			}
, 			{
				"patchline" : 				{
					"destination" : [ "obj-50", 0 ],
					"source" : [ "obj-24", 0 ]
				}

			}
, 			{
				"patchline" : 				{
					"destination" : [ "obj-29", 0 ],
					"order" : 1,
					"source" : [ "obj-25", 0 ]
				}

			}
, 			{
				"patchline" : 				{
					"destination" : [ "obj-41", 0 ],
					"order" : 0,
					"source" : [ "obj-25", 0 ]
				}

			}
, 			{
				"patchline" : 				{
					"destination" : [ "obj-52", 0 ],
					"source" : [ "obj-26", 0 ]
				}

			}
, 			{
				"patchline" : 				{
					"destination" : [ "obj-15", 0 ],
					"source" : [ "obj-27", 0 ]
				}

			}
, 			{
				"patchline" : 				{
					"destination" : [ "obj-54", 0 ],
					"source" : [ "obj-28", 0 ]
				}

			}
, 			{
				"patchline" : 				{
					"destination" : [ "obj-15", 0 ],
					"source" : [ "obj-29", 0 ]
				}

			}
, 			{
				"patchline" : 				{
					"destination" : [ "obj-2", 0 ],
					"source" : [ "obj-3", 0 ]
				}

			}
, 			{
				"patchline" : 				{
					"destination" : [ "obj-56", 0 ],
					"source" : [ "obj-30", 0 ]
				}

			}
, 			{
				"patchline" : 				{
					"destination" : [ "obj-15", 0 ],
					"source" : [ "obj-31", 0 ]
				}

			}
, 			{
				"patchline" : 				{
					"destination" : [ "obj-58", 0 ],
					"source" : [ "obj-32", 0 ]
				}

			}
, 			{
				"patchline" : 				{
					"destination" : [ "obj-15", 0 ],
					"source" : [ "obj-33", 0 ]
				}

			}
, 			{
				"patchline" : 				{
					"destination" : [ "obj-60", 0 ],
					"source" : [ "obj-34", 0 ]
				}

			}
, 			{
				"patchline" : 				{
					"destination" : [ "obj-15", 0 ],
					"source" : [ "obj-35", 0 ]
				}

			}
, 			{
				"patchline" : 				{
					"destination" : [ "obj-62", 0 ],
					"source" : [ "obj-36", 0 ]
				}

			}
, 			{
				"patchline" : 				{
					"destination" : [ "obj-64", 0 ],
					"source" : [ "obj-38", 0 ]
				}

			}
, 			{
				"patchline" : 				{
					"destination" : [ "obj-15", 0 ],
					"source" : [ "obj-39", 0 ]
				}

			}
, 			{
				"patchline" : 				{
					"destination" : [ "obj-31", 0 ],
					"source" : [ "obj-4", 0 ]
				}

			}
, 			{
				"patchline" : 				{
					"destination" : [ "obj-66", 0 ],
					"source" : [ "obj-40", 0 ]
				}

			}
, 			{
				"patchline" : 				{
					"destination" : [ "obj-15", 0 ],
					"source" : [ "obj-41", 0 ]
				}

			}
, 			{
				"patchline" : 				{
					"destination" : [ "obj-68", 0 ],
					"source" : [ "obj-42", 0 ]
				}

			}
, 			{
				"patchline" : 				{
					"destination" : [ "obj-45", 0 ],
					"source" : [ "obj-43", 0 ]
				}

			}
, 			{
				"patchline" : 				{
					"destination" : [ "obj-72", 0 ],
					"source" : [ "obj-44", 0 ]
				}

			}
, 			{
				"patchline" : 				{
					"destination" : [ "obj-15", 0 ],
					"source" : [ "obj-45", 0 ]
				}

			}
, 			{
				"patchline" : 				{
					"destination" : [ "obj-15", 0 ],
					"source" : [ "obj-46", 0 ]
				}

			}
, 			{
				"patchline" : 				{
					"destination" : [ "obj-74", 0 ],
					"source" : [ "obj-47", 0 ]
				}

			}
, 			{
				"patchline" : 				{
					"destination" : [ "obj-15", 0 ],
					"source" : [ "obj-48", 0 ]
				}

			}
, 			{
				"patchline" : 				{
					"destination" : [ "obj-76", 0 ],
					"source" : [ "obj-49", 0 ]
				}

			}
, 			{
				"patchline" : 				{
					"destination" : [ "obj-15", 0 ],
					"source" : [ "obj-5", 0 ]
				}

			}
, 			{
				"patchline" : 				{
					"destination" : [ "obj-15", 0 ],
					"source" : [ "obj-50", 0 ]
				}

			}
, 			{
				"patchline" : 				{
					"destination" : [ "obj-70", 0 ],
					"source" : [ "obj-51", 0 ]
				}

			}
, 			{
				"patchline" : 				{
					"destination" : [ "obj-15", 0 ],
					"source" : [ "obj-52", 0 ]
				}

			}
, 			{
				"patchline" : 				{
					"destination" : [ "obj-55", 0 ],
					"source" : [ "obj-53", 0 ]
				}

			}
, 			{
				"patchline" : 				{
					"destination" : [ "obj-15", 0 ],
					"source" : [ "obj-54", 0 ]
				}

			}
, 			{
				"patchline" : 				{
					"destination" : [ "obj-15", 0 ],
					"source" : [ "obj-55", 0 ]
				}

			}
, 			{
				"patchline" : 				{
					"destination" : [ "obj-15", 0 ],
					"source" : [ "obj-56", 0 ]
				}

			}
, 			{
				"patchline" : 				{
					"destination" : [ "obj-59", 0 ],
					"source" : [ "obj-57", 0 ]
				}

			}
, 			{
				"patchline" : 				{
					"destination" : [ "obj-15", 0 ],
					"source" : [ "obj-58", 0 ]
				}

			}
, 			{
				"patchline" : 				{
					"destination" : [ "obj-15", 0 ],
					"source" : [ "obj-59", 0 ]
				}

			}
, 			{
				"patchline" : 				{
					"destination" : [ "obj-33", 0 ],
					"source" : [ "obj-6", 0 ]
				}

			}
, 			{
				"patchline" : 				{
					"destination" : [ "obj-15", 0 ],
					"source" : [ "obj-60", 0 ]
				}

			}
, 			{
				"patchline" : 				{
					"destination" : [ "obj-67", 0 ],
					"source" : [ "obj-61", 0 ]
				}

			}
, 			{
				"patchline" : 				{
					"destination" : [ "obj-15", 0 ],
					"source" : [ "obj-62", 0 ]
				}

			}
, 			{
				"patchline" : 				{
					"destination" : [ "obj-39", 0 ],
					"source" : [ "obj-63", 0 ]
				}

			}
, 			{
				"patchline" : 				{
					"destination" : [ "obj-15", 0 ],
					"source" : [ "obj-64", 0 ]
				}

			}
, 			{
				"patchline" : 				{
					"destination" : [ "obj-15", 0 ],
					"source" : [ "obj-66", 0 ]
				}

			}
, 			{
				"patchline" : 				{
					"destination" : [ "obj-15", 0 ],
					"source" : [ "obj-67", 0 ]
				}

			}
, 			{
				"patchline" : 				{
					"destination" : [ "obj-15", 0 ],
					"source" : [ "obj-68", 0 ]
				}

			}
, 			{
				"patchline" : 				{
					"destination" : [ "obj-73", 0 ],
					"source" : [ "obj-69", 0 ]
				}

			}
, 			{
				"patchline" : 				{
					"destination" : [ "obj-15", 0 ],
					"source" : [ "obj-7", 0 ]
				}

			}
, 			{
				"patchline" : 				{
					"destination" : [ "obj-15", 0 ],
					"source" : [ "obj-70", 0 ]
				}

			}
, 			{
				"patchline" : 				{
					"destination" : [ "obj-15", 0 ],
					"source" : [ "obj-71", 0 ]
				}

			}
, 			{
				"patchline" : 				{
					"destination" : [ "obj-15", 0 ],
					"source" : [ "obj-72", 0 ]
				}

			}
, 			{
				"patchline" : 				{
					"destination" : [ "obj-15", 0 ],
					"source" : [ "obj-73", 0 ]
				}

			}
, 			{
				"patchline" : 				{
					"destination" : [ "obj-15", 0 ],
					"source" : [ "obj-74", 0 ]
				}

			}
, 			{
				"patchline" : 				{
					"destination" : [ "obj-78", 0 ],
					"source" : [ "obj-75", 0 ]
				}

			}
, 			{
				"patchline" : 				{
					"destination" : [ "obj-15", 0 ],
					"source" : [ "obj-76", 0 ]
				}

			}
, 			{
				"patchline" : 				{
					"destination" : [ "obj-15", 0 ],
					"source" : [ "obj-78", 0 ]
				}

			}
, 			{
				"patchline" : 				{
					"destination" : [ "obj-15", 0 ],
					"source" : [ "obj-79", 0 ]
				}

			}
, 			{
				"patchline" : 				{
					"destination" : [ "obj-35", 0 ],
					"source" : [ "obj-8", 0 ]
				}

			}
, 			{
				"patchline" : 				{
					"destination" : [ "obj-15", 0 ],
					"source" : [ "obj-81", 0 ]
				}

			}
, 			{
				"patchline" : 				{
					"destination" : [ "obj-15", 0 ],
					"source" : [ "obj-83", 0 ]
				}

			}
, 			{
				"patchline" : 				{
					"destination" : [ "obj-15", 0 ],
					"source" : [ "obj-85", 0 ]
				}

			}
, 			{
				"patchline" : 				{
					"destination" : [ "obj-15", 0 ],
					"source" : [ "obj-87", 0 ]
				}

			}
, 			{
				"patchline" : 				{
					"destination" : [ "obj-27", 0 ],
					"source" : [ "obj-88", 0 ]
				}

			}
, 			{
				"patchline" : 				{
					"destination" : [ "obj-71", 0 ],
					"source" : [ "obj-89", 0 ]
				}

			}
, 			{
				"patchline" : 				{
					"destination" : [ "obj-15", 0 ],
					"source" : [ "obj-9", 0 ]
				}

			}
, 			{
				"patchline" : 				{
					"destination" : [ "obj-79", 0 ],
					"source" : [ "obj-90", 0 ]
				}

			}
, 			{
				"patchline" : 				{
					"destination" : [ "obj-81", 0 ],
					"source" : [ "obj-91", 0 ]
				}

			}
, 			{
				"patchline" : 				{
					"destination" : [ "obj-83", 0 ],
					"source" : [ "obj-92", 0 ]
				}

			}
, 			{
				"patchline" : 				{
					"destination" : [ "obj-85", 0 ],
					"source" : [ "obj-94", 0 ]
				}

			}
, 			{
				"patchline" : 				{
					"destination" : [ "obj-87", 0 ],
					"source" : [ "obj-95", 0 ]
				}

			}
 ],
		"dependency_cache" : [ 			{
				"name" : "Activate.wav",
				"bootpath" : "E:/Documents/HTD Soundclips/Cyberpunk collection 1/Stems",
				"patcherrelativepath" : ".",
				"type" : "WAVE",
				"implicit" : 1
			}
, 			{
				"name" : "Belt Buckle.wav",
				"bootpath" : "E:/Documents/HTD Soundclips/Cyberpunk collection 1/Stems",
				"patcherrelativepath" : ".",
				"type" : "WAVE",
				"implicit" : 1
			}
, 			{
				"name" : "Bleeding Out.wav",
				"bootpath" : "E:/Documents/HTD Soundclips/Cyberpunk collection 1/Stems",
				"patcherrelativepath" : ".",
				"type" : "WAVE",
				"implicit" : 1
			}
, 			{
				"name" : "blinded by the light.wav",
				"bootpath" : "E:/Documents/HTD Soundclips/Cyberpunk collection 1/Stems",
				"patcherrelativepath" : ".",
				"type" : "WAVE",
				"implicit" : 1
			}
, 			{
				"name" : "boop-ba-da-doip.wav",
				"bootpath" : "E:/Documents/HTD Soundclips/Cyberpunk collection 1/Stems",
				"patcherrelativepath" : ".",
				"type" : "WAVE",
				"implicit" : 1
			}
, 			{
				"name" : "box.wav",
				"bootpath" : "E:/Documents/HTD Soundclips/Cyberpunk collection 1/Stems",
				"patcherrelativepath" : ".",
				"type" : "WAVE",
				"implicit" : 1
			}
, 			{
				"name" : "dead dog.wav",
				"bootpath" : "E:/Documents/HTD Soundclips/Cyberpunk collection 1/Stems",
				"patcherrelativepath" : ".",
				"type" : "WAVE",
				"implicit" : 1
			}
, 			{
				"name" : "Down in a hole.wav",
				"bootpath" : "E:/Documents/HTD Soundclips/Cyberpunk collection 1/Stems",
				"patcherrelativepath" : ".",
				"type" : "WAVE",
				"implicit" : 1
			}
, 			{
				"name" : "DRng!.wav",
				"bootpath" : "E:/Documents/HTD Soundclips/Cyberpunk collection 1/Stems",
				"patcherrelativepath" : ".",
				"type" : "WAVE",
				"implicit" : 1
			}
, 			{
				"name" : "eyes melting.wav",
				"bootpath" : "E:/Documents/HTD Soundclips/Cyberpunk collection 1/Stems",
				"patcherrelativepath" : ".",
				"type" : "WAVE",
				"implicit" : 1
			}
, 			{
				"name" : "gun shots.wav",
				"bootpath" : "E:/Documents/HTD Soundclips/Cyberpunk collection 1/Stems",
				"patcherrelativepath" : ".",
				"type" : "WAVE",
				"implicit" : 1
			}
, 			{
				"name" : "I am so tigh right now.wav",
				"bootpath" : "E:/Documents/HTD Soundclips/Cyberpunk collection 1/Stems",
				"patcherrelativepath" : ".",
				"type" : "WAVE",
				"implicit" : 1
			}
, 			{
				"name" : "Iiiit's a rolloff!.wav",
				"bootpath" : "E:/Documents/HTD Soundclips/Cyberpunk collection 1/Stems",
				"patcherrelativepath" : ".",
				"type" : "WAVE",
				"implicit" : 1
			}
, 			{
				"name" : "Jungle mix.wav",
				"bootpath" : "E:/Documents/HTD Soundclips/Cyberpunk collection 1/Stems",
				"patcherrelativepath" : ".",
				"type" : "WAVE",
				"implicit" : 1
			}
, 			{
				"name" : "Million Dollars.wav",
				"bootpath" : "E:/Documents/HTD Soundclips/Cyberpunk collection 1/Stems",
				"patcherrelativepath" : ".",
				"type" : "WAVE",
				"implicit" : 1
			}
, 			{
				"name" : "NODE!.wav",
				"bootpath" : "E:/Documents/HTD Soundclips/Cyberpunk collection 1/Stems",
				"patcherrelativepath" : ".",
				"type" : "WAVE",
				"implicit" : 1
			}
, 			{
				"name" : "on the line (mother's head).wav",
				"bootpath" : "E:/Documents/HTD Soundclips/Cyberpunk collection 1/Stems",
				"patcherrelativepath" : ".",
				"type" : "WAVE",
				"implicit" : 1
			}
, 			{
				"name" : "phone call.wav",
				"bootpath" : "E:/Documents/HTD Soundclips/Cyberpunk collection 1/Stems",
				"patcherrelativepath" : ".",
				"type" : "WAVE",
				"implicit" : 1
			}
, 			{
				"name" : "ravens 1.wav",
				"bootpath" : "E:/Documents/HTD Soundclips/Cyberpunk collection 1/Stems",
				"patcherrelativepath" : ".",
				"type" : "WAVE",
				"implicit" : 1
			}
, 			{
				"name" : "ravens 2.wav",
				"bootpath" : "E:/Documents/HTD Soundclips/Cyberpunk collection 1/Stems",
				"patcherrelativepath" : ".",
				"type" : "WAVE",
				"implicit" : 1
			}
, 			{
				"name" : "ravens 3.wav",
				"bootpath" : "E:/Documents/HTD Soundclips/Cyberpunk collection 1/Stems",
				"patcherrelativepath" : ".",
				"type" : "WAVE",
				"implicit" : 1
			}
, 			{
				"name" : "Ruth - be a doll.wav",
				"bootpath" : "E:/Documents/HTD Soundclips/Cyberpunk collection 1/Stems",
				"patcherrelativepath" : ".",
				"type" : "WAVE",
				"implicit" : 1
			}
, 			{
				"name" : "symmetry.wav",
				"bootpath" : "E:/Documents/HTD Soundclips/Cyberpunk collection 1/Stems",
				"patcherrelativepath" : ".",
				"type" : "WAVE",
				"implicit" : 1
			}
, 			{
				"name" : "they're killing me.wav",
				"bootpath" : "E:/Documents/HTD Soundclips/Cyberpunk collection 1/Stems",
				"patcherrelativepath" : ".",
				"type" : "WAVE",
				"implicit" : 1
			}
, 			{
				"name" : "arching electricity.wav",
				"bootpath" : "E:/Documents/HTD Soundclips/Cyberpunk collection 1/Stems",
				"patcherrelativepath" : ".",
				"type" : "WAVE",
				"implicit" : 1
			}
, 			{
				"name" : "beat you down!.wav",
				"bootpath" : "E:/Documents/HTD Soundclips/Cyberpunk collection 1/Stems",
				"patcherrelativepath" : ".",
				"type" : "WAVE",
				"implicit" : 1
			}
, 			{
				"name" : "beatboxing.wav",
				"bootpath" : "E:/Documents/HTD Soundclips/Cyberpunk collection 1/Stems",
				"patcherrelativepath" : ".",
				"type" : "WAVE",
				"implicit" : 1
			}
, 			{
				"name" : "Fuck you birds!.wav",
				"bootpath" : "E:/Documents/HTD Soundclips/Cyberpunk collection 1/Stems",
				"patcherrelativepath" : ".",
				"type" : "WAVE",
				"implicit" : 1
			}
, 			{
				"name" : "never ask that on the stream.wav",
				"bootpath" : "E:/Documents/HTD Soundclips/Cyberpunk collection 1/Stems",
				"patcherrelativepath" : ".",
				"type" : "WAVE",
				"implicit" : 1
			}
, 			{
				"name" : "Party hard.wav",
				"bootpath" : "E:/Documents/HTD Soundclips/Cyberpunk collection 1/Stems",
				"patcherrelativepath" : ".",
				"type" : "WAVE",
				"implicit" : 1
			}
, 			{
				"name" : "say goodnight gracy.wav",
				"bootpath" : "E:/Documents/HTD Soundclips/Cyberpunk collection 1/Stems",
				"patcherrelativepath" : ".",
				"type" : "WAVE",
				"implicit" : 1
			}
, 			{
				"name" : "testicles.wav",
				"bootpath" : "E:/Documents/HTD Soundclips/Cyberpunk collection 1/Stems",
				"patcherrelativepath" : ".",
				"type" : "WAVE",
				"implicit" : 1
			}
, 			{
				"name" : "Tinkerer.wav",
				"bootpath" : "E:/Documents/HTD Soundclips/Cyberpunk collection 1/Stems",
				"patcherrelativepath" : ".",
				"type" : "WAVE",
				"implicit" : 1
			}
, 			{
				"name" : "uterus.wav",
				"bootpath" : "E:/Documents/HTD Soundclips/Cyberpunk collection 1/Stems",
				"patcherrelativepath" : ".",
				"type" : "WAVE",
				"implicit" : 1
			}
, 			{
				"name" : "fox sex.wav",
				"bootpath" : "E:/Documents/HTD Soundclips/Cyberpunk collection 1/Stems",
				"patcherrelativepath" : ".",
				"type" : "WAVE",
				"implicit" : 1
			}
, 			{
				"name" : "Ah My Dick!.wav",
				"bootpath" : "E:/Documents/HTD Soundclips/Cyberpunk collection 1/Stems",
				"patcherrelativepath" : ".",
				"type" : "WAVE",
				"implicit" : 1
			}
, 			{
				"name" : "BARK BARK.wav",
				"bootpath" : "E:/Documents/HTD Soundclips/Cyberpunk collection 1/Stems",
				"patcherrelativepath" : ".",
				"type" : "WAVE",
				"implicit" : 1
			}
, 			{
				"name" : "Laser 1.wav",
				"bootpath" : "E:/Documents/HTD Soundclips/Cyberpunk collection 1/Stems",
				"patcherrelativepath" : ".",
				"type" : "WAVE",
				"implicit" : 1
			}
, 			{
				"name" : "Laser 2.wav",
				"bootpath" : "E:/Documents/HTD Soundclips/Cyberpunk collection 1/Stems",
				"patcherrelativepath" : ".",
				"type" : "WAVE",
				"implicit" : 1
			}
, 			{
				"name" : "Laser 3.wav",
				"bootpath" : "E:/Documents/HTD Soundclips/Cyberpunk collection 1/Stems",
				"patcherrelativepath" : ".",
				"type" : "WAVE",
				"implicit" : 1
			}
, 			{
				"name" : "Robodog.wav",
				"bootpath" : "E:/Documents/HTD Soundclips/Cyberpunk collection 1/Stems",
				"patcherrelativepath" : ".",
				"type" : "WAVE",
				"implicit" : 1
			}
, 			{
				"name" : "Underground Alarm.wav",
				"bootpath" : "E:/Documents/HTD Soundclips/Cyberpunk collection 1/Stems",
				"patcherrelativepath" : ".",
				"type" : "WAVE",
				"implicit" : 1
			}
 ],
		"autosave" : 0
	}

}
